<svg width="79" height="44" viewBox="0 0 79 44" fill="none" xmlns="http://www.w3.org/2000/svg">
<rect width="79" height="44" fill="#282C38"/>
<path d="M46.9479 21.5345L48.3445 20.1379L49.741 19.2069L51.6031 20.1379L52.5341 21.5345V22.931L51.6031 23.8621L49.741 24.3276L48.3445 23.8621H46.9479L46.4824 22.931L46.9479 21.5345Z" fill="#766E31"/>
<path d="M46.0163 26.6552L47.4129 25.2586L48.8094 24.3276L51.137 25.2586L51.6025 26.6552V28.0517L50.6715 28.9828L48.8094 29.4483L47.4129 28.9828H46.0163L45.5508 28.0517L46.0163 26.6552Z" fill="#766E31"/>
<path d="M32.0163 22.2116L30.5123 20.6881L29.0083 19.6724L27.003 20.6881L26.0003 22.2116V23.7351L27.003 24.7508L29.0083 25.2586L30.5123 24.7508H32.0163L32.5176 23.7351L32.0163 22.2116Z" fill="#766E31"/>
<path d="M32.9479 25.9357L31.4439 24.4122L29.9399 23.3966L27.9346 24.4122L26.932 25.9357V27.4593L27.9346 28.4749L29.9399 28.9828L31.4439 28.4749H32.9479L33.4492 27.4593L32.9479 25.9357Z" fill="#766E31"/>
<path fill-rule="evenodd" clip-rule="evenodd" d="M34.5157 13.1703C34.1808 13.2046 33.67 13.3788 33.2322 13.608C32.888 13.7882 32.6322 14.008 31.5094 15.0884L30.1909 16.3572L30.1314 16.0948C29.9861 15.4535 29.7183 15.2713 28.9251 15.2739C27.5736 15.2783 26.8001 15.8936 27.1356 16.6972C27.3032 17.0988 27.9503 17.6037 28.5509 17.8015C28.6343 17.8289 28.5126 17.9755 27.8338 18.6645C26.9488 19.5629 26.67 19.9594 26.3617 20.7582C26.0251 21.6305 26.0003 21.8625 26 24.1402C25.9997 26.3701 26.0253 26.6426 26.2886 27.2182C26.3634 27.3817 26.5152 27.6356 26.6259 27.7825L26.8272 28.0494L26.8516 28.8965C26.8726 29.6267 26.8918 29.7764 26.9905 29.9804C27.1477 30.3055 27.3946 30.5457 27.7384 30.7079C28.0238 30.8426 28.0477 30.8448 29.2152 30.8448C30.3498 30.8448 30.414 30.8393 30.6775 30.7201C30.9776 30.5843 31.3447 30.2244 31.4555 29.9574C31.4939 29.8647 31.5424 29.6286 31.5631 29.4326L31.6008 29.0763H39.4998H47.3987L47.4351 29.4326C47.4986 30.0554 47.7721 30.4552 48.3076 30.7079C48.593 30.8426 48.6169 30.8448 49.7844 30.8448C50.9519 30.8448 50.9758 30.8426 51.2612 30.7079C51.605 30.5457 51.8519 30.3055 52.0091 29.9804C52.1078 29.7764 52.127 29.6267 52.148 28.8965L52.1724 28.0494L52.3737 27.7825C52.4844 27.6356 52.6362 27.3817 52.711 27.2182C52.9736 26.6441 52.9998 26.3677 53 24.1666C53.0003 21.9105 52.9686 21.6106 52.6397 20.7615C52.3284 19.9577 52.0512 19.5633 51.1658 18.6645C50.487 17.9755 50.3652 17.8289 50.4487 17.8015C51.0492 17.6037 51.6964 17.0988 51.864 16.6972C52.1995 15.8936 51.426 15.2783 50.0745 15.2739C49.2813 15.2713 49.0135 15.4535 48.8682 16.0948L48.8087 16.3572L47.4901 15.0884C46.0857 13.737 45.8559 13.5682 45.0303 13.2811L44.6948 13.1645L39.7108 13.1566C36.9695 13.1522 34.6317 13.1583 34.5157 13.1703ZM44.8949 14.7366C45.3183 14.9159 45.6483 15.2044 47.4638 16.9828L48.7032 18.197L39.513 18.1991C34.4583 18.2002 30.3228 18.1924 30.3228 18.1818C30.3228 18.1711 31.062 17.446 31.9655 16.5706C33.3591 15.2202 33.659 14.9545 33.9435 14.8186C34.1278 14.7306 34.3795 14.6382 34.5027 14.6135C34.6259 14.5887 36.9339 14.5721 39.6316 14.5767L44.5366 14.5849L44.8949 14.7366ZM29.0382 20.4758C29.7729 20.6999 30.9684 21.417 31.5778 21.9992C32.6876 23.0595 31.9782 23.5238 29.3302 23.4702C28.3822 23.451 28.268 23.4384 28.0138 23.3256C27.6715 23.1737 27.305 22.7805 27.1895 22.4412C26.8971 21.5821 27.4013 20.6235 28.251 20.4232C28.5575 20.351 28.6486 20.357 29.0382 20.4758ZM51.0238 20.5193C51.7011 20.821 52.0616 21.7023 51.8101 22.4412C51.6945 22.7807 51.328 23.1738 50.9858 23.3253C50.7339 23.4368 50.6131 23.4507 49.7173 23.4702C47.0363 23.5286 46.3223 23.0747 47.4176 22.0082C48.0016 21.4394 49.1443 20.7431 49.9093 20.4897C50.3329 20.3494 50.662 20.3582 51.0238 20.5193ZM45.6568 22.7544C45.6212 23.2243 45.4243 23.8054 45.1712 24.187C44.9765 24.4805 44.7837 24.6548 44.4575 24.8319C44.2801 24.9282 44.0876 24.9321 39.4998 24.9321H34.7267L34.5004 24.8112C33.8835 24.4814 33.4106 23.6411 33.343 22.7544L33.3138 22.3717H39.4998H45.6858L45.6568 22.7544ZM31.8786 26.4218C32.3718 26.9908 32.7831 27.4763 32.7928 27.5008C32.8025 27.5253 32.0117 27.5453 31.0355 27.5453H29.2606L28.8555 27.3768C27.9352 26.9939 27.5867 26.3036 27.9519 25.5872L28.057 25.3808L29.5195 25.3841L30.982 25.3873L31.8786 26.4218ZM51.052 25.5956C51.1122 25.7138 51.1751 25.9256 51.1918 26.0663C51.2526 26.5806 50.8457 27.0842 50.1274 27.3835L49.739 27.5453H47.9641C46.9879 27.5453 46.1971 27.5258 46.2068 27.5019C46.2164 27.4781 46.6278 26.9925 47.1209 26.423L48.0176 25.3874L49.4801 25.3842L50.9425 25.3808L51.052 25.5956ZM45.1708 26.2123C45.1021 26.582 44.9227 26.9105 44.661 27.1461C44.1944 27.566 44.462 27.5453 39.4998 27.5453C34.5375 27.5453 34.8052 27.566 34.3386 27.1461C34.0768 26.9105 33.8975 26.582 33.8288 26.2123L33.7919 26.0143H39.4998H45.2076L45.1708 26.2123Z" fill="#ECD126"/>
</svg>
