<svg width="20" height="18" viewBox="0 0 20 18" fill="none" xmlns="http://www.w3.org/2000/svg">
<path d="M20 5.0597C20 2.2697 17.76 0.00970268 14.97 -0.000297546H14.96H5.05C2.27 -0.000297546 0 2.2497 0 5.0397V5.0497C0 5.0497 0.006 9.4757 0.014 11.7017C0.015 12.1197 0.495 12.3537 0.822 12.0937C3.198 10.2087 7.447 6.7717 7.5 6.7267C8.21 6.1577 9.11 5.8367 10.03 5.8367C10.95 5.8367 11.85 6.1577 12.56 6.7377C12.613 6.7727 16.767 10.1067 19.179 12.0227C19.507 12.2837 19.989 12.0497 19.99 11.6327C20 9.4237 20 5.0597 20 5.0597Z" fill="#757B8C"/>
<path d="M19.4769 15.3263C18.6109 16.9583 16.9069 18.0003 15.0309 18.0003H5.05086C3.17486 18.0003 1.47086 16.9583 0.60486 15.3263C0.41086 14.9613 0.50286 14.5063 0.82586 14.2483L8.25086 8.30931C8.77086 7.88931 9.40086 7.68031 10.0309 7.68031C10.0349 7.68031 10.0379 7.68031 10.0409 7.68031C10.0439 7.68031 10.0479 7.68031 10.0509 7.68031C10.6809 7.68031 11.3109 7.88931 11.8309 8.30931L19.2559 14.2483C19.5789 14.5063 19.6709 14.9613 19.4769 15.3263Z" fill="#41444E"/>
</svg>
