<svg width="27" height="18" viewBox="0 0 27 18" fill="none" xmlns="http://www.w3.org/2000/svg">
<path fill-rule="evenodd" clip-rule="evenodd" d="M8.51571 0.170256C8.1808 0.204624 7.67 0.378838 7.23219 0.608008C6.888 0.788187 6.6322 1.00796 5.50944 2.0884L4.1909 3.35721L4.13141 3.09483C3.98605 2.45351 3.71828 2.27127 2.9251 2.27386C1.5736 2.27835 0.800092 2.89359 1.13558 3.69724C1.30319 4.09878 1.95033 4.60368 2.5509 4.80149C2.63434 4.82894 2.51256 4.97555 1.83377 5.66454C0.94877 6.5629 0.670031 6.95937 0.361704 7.75816C0.0250541 8.6305 0.000265699 8.86247 1.9909e-06 11.1402C-0.000261717 13.3701 0.0253178 13.6426 0.288551 14.2182C0.363391 14.3817 0.515182 14.6356 0.625886 14.7825L0.827201 15.0494L0.85162 15.8965C0.872611 16.6267 0.891809 16.7764 0.990489 16.9804C1.14771 17.3055 1.39459 17.5457 1.73842 17.7079C2.0238 17.8426 2.04769 17.8448 3.21518 17.8448C4.34976 17.8448 4.414 17.8393 4.67755 17.7201C4.97759 17.5843 5.34473 17.2244 5.45549 16.9574C5.49388 16.8647 5.54235 16.6286 5.56308 16.4326L5.60084 16.0763H13.4998H21.3987L21.4351 16.4326C21.4986 17.0554 21.7721 17.4552 22.3076 17.7079C22.593 17.8426 22.6169 17.8448 23.7844 17.8448C24.9519 17.8448 24.9758 17.8426 25.2612 17.7079C25.605 17.5457 25.8519 17.3055 26.0091 16.9804C26.1078 16.7764 26.127 16.6267 26.148 15.8965L26.1724 15.0494L26.3737 14.7825C26.4844 14.6356 26.6362 14.3817 26.711 14.2182C26.9736 13.6441 26.9998 13.3677 27 11.1666C27.0003 8.91045 26.9686 8.61065 26.6397 7.76154C26.3284 6.95768 26.0512 6.56332 25.1658 5.66454C24.487 4.97555 24.3652 4.82894 24.4487 4.80149C25.0492 4.60368 25.6964 4.09878 25.864 3.69724C26.1995 2.89359 25.426 2.27835 24.0745 2.27386C23.2813 2.27127 23.0135 2.45351 22.8682 3.09483L22.8087 3.35721L21.4901 2.0884C20.0857 0.736979 19.8559 0.56815 19.0303 0.28112L18.6948 0.164502L13.7108 0.156583C10.9695 0.152201 8.63174 0.158325 8.51571 0.170256ZM18.8949 1.7366C19.3183 1.91588 19.6483 2.20439 21.4638 3.98285L22.7032 5.19696L13.513 5.19907C8.45833 5.20018 4.32275 5.19242 4.32275 5.18175C4.32275 5.17109 5.06198 4.44604 5.9655 3.57059C7.35914 2.22017 7.65903 1.95452 7.94346 1.81864C8.12785 1.73058 8.37953 1.63824 8.50268 1.61349C8.62589 1.58873 10.9339 1.57215 13.6316 1.57669L18.5366 1.58487L18.8949 1.7366ZM3.03823 7.47583C3.77287 7.69988 4.96842 8.41701 5.57779 8.9992C6.68763 10.0595 5.97815 10.5238 3.33021 10.4702C2.38223 10.451 2.26805 10.4384 2.01378 10.3256C1.67149 10.1737 1.30499 9.78047 1.18948 9.44117C0.897083 8.58214 1.40135 7.62349 2.25096 7.42325C2.55755 7.35098 2.64863 7.35705 3.03823 7.47583ZM25.0238 7.51933C25.7011 7.82104 26.0616 8.70229 25.8101 9.44117C25.6945 9.78073 25.328 10.1738 24.9858 10.3253C24.7339 10.4368 24.6131 10.4507 23.7173 10.4702C21.0363 10.5286 20.3223 10.0747 21.4176 9.00817C22.0016 8.43939 23.1443 7.74306 23.9093 7.48966C24.3329 7.34939 24.662 7.35816 25.0238 7.51933ZM19.6568 9.75444C19.6212 10.2243 19.4243 10.8054 19.1712 11.187C18.9765 11.4805 18.7837 11.6548 18.4575 11.8319C18.2801 11.9282 18.0876 11.9321 13.4998 11.9321H8.72668L8.50036 11.8112C7.8835 11.4814 7.41062 10.6411 7.343 9.75444L7.31378 9.3717H13.4998H19.6858L19.6568 9.75444ZM5.87863 13.4218C6.37176 13.9908 6.78315 14.4763 6.7928 14.5008C6.8025 14.5253 6.0117 14.5453 5.0355 14.5453H3.26059L2.85548 14.3768C1.93525 13.9939 1.58673 13.3036 1.95186 12.5872L2.05703 12.3808L3.5195 12.3841L4.98202 12.3873L5.87863 13.4218ZM25.052 12.5956C25.1122 12.7138 25.1751 12.9256 25.1918 13.0663C25.2526 13.5806 24.8457 14.0842 24.1274 14.3835L23.739 14.5453H21.9641C20.9879 14.5453 20.1971 14.5258 20.2068 14.5019C20.2164 14.4781 20.6278 13.9925 21.1209 13.423L22.0176 12.3874L23.4801 12.3842L24.9425 12.3808L25.052 12.5956ZM19.1708 13.2123C19.1021 13.582 18.9227 13.9105 18.661 14.1461C18.1944 14.566 18.462 14.5453 13.4998 14.5453C8.53754 14.5453 8.80521 14.566 8.3386 14.1461C8.07685 13.9105 7.89747 13.582 7.82875 13.2123L7.79194 13.0143H13.4998H19.2076L19.1708 13.2123Z" fill="#ECD126"/>
</svg>
